<svg viewBox="0 0 320 180" xmlns="http://www.w3.org/2000/svg">
  <defs>
    <linearGradient id="houseGradient" x1="0%" y1="0%" x2="100%" y2="0%">
      <stop offset="0%" style="stop-color:#8B4513;stop-opacity:1" />
      <stop offset="100%" style="stop-color:#A0522D;stop-opacity:1" />
    </linearGradient>
  </defs>
  
  <!-- Sky background -->
  <rect width="320" height="120" fill="#87CEEB"/>
  
  <!-- Ground -->
  <rect x="0" y="120" width="320" height="60" fill="#90EE90"/>
  
  <!-- House -->
  <rect x="120" y="60" width="80" height="60" fill="url(#houseGradient)"/>
  <polygon points="120,60 160,30 200,60" fill="#DC143C"/>
  
  <!-- Windows -->
  <rect x="130" y="75" width="15" height="15" fill="#87CEEB"/>
  <rect x="155" y="75" width="15" height="15" fill="#87CEEB"/>
  <line x1="137" y1="75" x2="137" y2="90" stroke="#8B4513" stroke-width="1"/>
  <line x1="130" y1="82" x2="145" y2="82" stroke="#8B4513" stroke-width="1"/>
  <line x1="162" y1="75" x2="162" y2="90" stroke="#8B4513" stroke-width="1"/>
  <line x1="155" y1="82" x2="170" y2="82" stroke="#8B4513" stroke-width="1"/>
  
  <!-- Door -->
  <rect x="175" y="95" width="15" height="25" fill="#654321"/>
  <circle cx="185" cy="107" r="1" fill="#FFD700"/>
  
  <!-- Ladder -->
  <line x1="90" y1="50" x2="90" y2="120" stroke="#8B4513" stroke-width="4"/>
  <line x1="100" y1="55" x2="100" y2="125" stroke="#8B4513" stroke-width="4"/>
  <line x1="90" y1="60" x2="100" y2="62" stroke="#8B4513" stroke-width="2"/>
  <line x1="90" y1="75" x2="100" y2="77" stroke="#8B4513" stroke-width="2"/>
  <line x1="90" y1="90" x2="100" y2="92" stroke="#8B4513" stroke-width="2"/>
  <line x1="90" y1="105" x2="100" y2="107" stroke="#8B4513" stroke-width="2"/>
  
  <!-- Tool box -->
  <rect x="220" y="140" width="40" height="20" fill="#2F4F4F" rx="2"/>
  <rect x="220" y="140" width="40" height="5" fill="#708090"/>
  <circle cx="240" cy="147" r="2" fill="#FFD700"/>
  
  <!-- Tools scattered -->
  <!-- Hammer -->
  <rect x="270" y="150" width="15" height="3" fill="#8B4513"/>
  <rect x="280" y="145" width="5" height="10" fill="#C0C0C0"/>
  
  <!-- Screwdriver -->
  <line x1="250" y1="155" x2="265" y2="155" stroke="#FFD700" stroke-width="3"/>
  <line x1="265" y1="155" x2="270" y2="155" stroke="#C0C0C0" stroke-width="2"/>
  
  <!-- Wrench -->
  <path d="M230,165 L240,165 L242,162 L240,160 L235,160 L235,162 L230,162 Z" fill="#C0C0C0"/>
  
  <!-- Paint bucket -->
  <rect x="50" y="140" width="20" height="25" fill="#4682B4" rx="2"/>
  <rect x="50" y="140" width="20" height="5" fill="#000080"/>
  <rect x="52" y="145" width="16" height="15" fill="#FFFFFF"/>
  
  <!-- Paint brush -->
  <line x1="75" y1="135" x2="85" y2="145" stroke="#8B4513" stroke-width="3"/>
  <rect x="82" y="142" width="5" height="8" fill="#C0C0C0"/>
  
  <!-- Roof repair area -->
  <rect x="140" y="45" width="20" height="15" fill="#DC143C" opacity="0.7"/>
  <polygon points="145,35 150,30 155,35 150,40" fill="#FFD700"/>
  
  <!-- Measuring tape -->
  <rect x="300" y="150" width="8" height="8" fill="#FFD700" rx="4"/>
  <line x1="304" y1="150" x2="304" y2="135" stroke="#000" stroke-width="1"/>
  
  <!-- Nails -->
  <circle cx="280" cy="170" r="1" fill="#C0C0C0"/>
  <circle cx="285" cy="168" r="1" fill="#C0C0C0"/>
  <circle cx="290" cy="172" r="1" fill="#C0C0C0"/>
  
  <!-- Person working -->
  <ellipse cx="40" cy="140" rx="8" ry="15" fill="#4169E1"/> <!-- Body -->
  <circle cx="40" cy="115" r="6" fill="#FFB6C1"/> <!-- Head -->
  <rect x="35" y="110" width="10" height="3" fill="#8B4513"/> <!-- Hard hat -->
  <rect x="32" y="130" width="6" height="12" fill="#4169E1"/> <!-- Left arm -->
  <rect x="42" y="130" width="6" height="12" fill="#4169E1"/> <!-- Right arm -->
  
  <!-- Tool belt -->
  <rect x="35" y="135" width="10" height="3" fill="#654321"/>
  <rect x="37" y="138" width="2" height="5" fill="#C0C0C0"/>
  <rect x="41" y="138" width="2" height="5" fill="#8B4513"/>
  
  <!-- Work area marked -->
  <rect x="20" y="160" width="60" height="3" fill="#FFD700" opacity="0.7"/>
  
  <!-- Sun -->
  <circle cx="280" cy="30" r="20" fill="#FFD700"/>
</svg>