<svg viewBox="0 0 320 180" xmlns="http://www.w3.org/2000/svg">
  <defs>
    <linearGradient id="woodGradient" x1="0%" y1="0%" x2="100%" y2="0%">
      <stop offset="0%" style="stop-color:#8B4513;stop-opacity:1" />
      <stop offset="100%" style="stop-color:#A0522D;stop-opacity:1" />
    </linearGradient>
  </defs>
  
  <!-- Kitchen background -->
  <rect width="320" height="180" fill="#F5E6D3"/>
  
  <!-- Kitchen counter -->
  <rect x="0" y="140" width="320" height="40" fill="url(#woodGradient)"/>
  
  <!-- Shelving -->
  <rect x="20" y="20" width="280" height="5" fill="url(#woodGradient)"/>
  <rect x="20" y="60" width="280" height="5" fill="url(#woodGradient)"/>
  <rect x="20" y="100" width="280" height="5" fill="url(#woodGradient)"/>
  
  <!-- Mason jars with preserved foods -->
  <rect x="30" y="25" width="15" height="30" fill="#E6F3FF" rx="2"/>
  <rect x="30" y="25" width="15" height="5" fill="#C0C0C0"/>
  <rect x="30" y="35" width="15" height="15" fill="#FF6B6B"/> <!-- Tomatoes -->
  
  <rect x="50" y="25" width="15" height="30" fill="#E6F3FF" rx="2"/>
  <rect x="50" y="25" width="15" height="5" fill="#C0C0C0"/>
  <rect x="50" y="35" width="15" height="15" fill="#90EE90"/> <!-- Pickles -->
  
  <rect x="70" y="25" width="15" height="30" fill="#E6F3FF" rx="2"/>
  <rect x="70" y="25" width="15" height="5" fill="#C0C0C0"/>
  <rect x="70" y="35" width="15" height="15" fill="#DDA0DD"/> <!-- Jam -->
  
  <!-- Dehydrator -->
  <rect x="150" y="105" width="60" height="30" fill="#2F4F4F" rx="5"/>
  <rect x="155" y="110" width="50" height="3" fill="#000"/>
  <rect x="155" y="118" width="50" height="3" fill="#000"/>
  <rect x="155" y="126" width="50" height="3" fill="#000"/>
  <circle cx="215" cy="120" r="3" fill="#32CD32"/>
  
  <!-- Dried herbs hanging -->
  <line x1="230" y1="20" x2="230" y2="40" stroke="#8B4513" stroke-width="2"/>
  <circle cx="228" cy="45" r="3" fill="#228B22"/>
  <circle cx="232" cy="45" r="3" fill="#228B22"/>
  <circle cx="230" cy="48" r="3" fill="#228B22"/>
  
  <line x1="250" y1="20" x2="250" y2="40" stroke="#8B4513" stroke-width="2"/>
  <circle cx="248" cy="45" r="3" fill="#9ACD32"/>
  <circle cx="252" cy="45" r="3" fill="#9ACD32"/>
  <circle cx="250" cy="48" r="3" fill="#9ACD32"/>
  
  <!-- Pressure canner -->
  <ellipse cx="80" cy="155" rx="25" ry="15" fill="#708090"/>
  <circle cx="80" cy="145" r="3" fill="#000"/>
  <rect x="75" y="135" width="10" height="5" fill="#708090"/>
  
  <!-- Fresh produce for processing -->
  <circle cx="120" cy="155" r="6" fill="#FF6B6B"/> <!-- Tomato -->
  <circle cx="135" cy="155" r="6" fill="#32CD32"/> <!-- Apple -->
  <ellipse cx="150" cy="158" rx="8" ry="4" fill="#FFA500"/> <!-- Carrot -->
  
  <!-- Vacuum sealer -->
  <rect x="220" y="145" width="40" height="15" fill="#4682B4" rx="3"/>
  <rect x="225" y="148" width="30" height="3" fill="#000"/>
  <circle cx="265" cy="152" r="2" fill="#32CD32"/>
  
  <!-- Salt for curing -->
  <rect x="270" y="150" width="20" height="15" fill="#FFFFFF" rx="2"/>
  <rect x="270" y="150" width="20" height="3" fill="#F0F0F0"/>
  
  <!-- Canning labels -->
  <rect x="30" y="65" width="15" height="8" fill="#FFFFFF"/>
  <rect x="50" y="65" width="15" height="8" fill="#FFFFFF"/>
  <rect x="70" y="65" width="15" height="8" fill="#FFFFFF"/>
  
  <!-- Steam rising from canner -->
  <path d="M75,140 Q72,135 75,130 Q78,125 75,120" fill="none" stroke="#E0E0E0" stroke-width="2" opacity="0.7"/>
  <path d="M85,140 Q88,135 85,130 Q82,125 85,120" fill="none" stroke="#E0E0E0" stroke-width="2" opacity="0.7"/>
</svg>