<svg viewBox="0 0 320 180" xmlns="http://www.w3.org/2000/svg">
  <defs>
    <linearGradient id="skyGradient" x1="0%" y1="0%" x2="0%" y2="100%">
      <stop offset="0%" style="stop-color:#87CEEB;stop-opacity:1" />
      <stop offset="100%" style="stop-color:#98D8E8;stop-opacity:1" />
    </linearGradient>
  </defs>
  
  <!-- Sky background -->
  <rect width="320" height="120" fill="url(#skyGradient)"/>
  
  <!-- Ground -->
  <rect x="0" y="120" width="320" height="60" fill="#D2B48C"/>
  
  <!-- House -->
  <rect x="200" y="80" width="60" height="40" fill="#8B4513"/>
  <polygon points="200,80 230,55 260,80" fill="#DC143C"/>
  
  <!-- Well -->
  <circle cx="80" cy="140" r="15" fill="#708090"/>
  <circle cx="80" cy="140" r="10" fill="#000080"/>
  <rect x="75" y="125" width="10" height="5" fill="#8B4513"/>
  
  <!-- Hand pump -->
  <rect x="85" y="120" width="3" height="20" fill="#C0C0C0"/>
  <ellipse cx="89" cy="115" rx="4" ry="8" fill="#C0C0C0"/>
  <line x1="89" y1="107" x2="95" y2="107" stroke="#8B4513" stroke-width="3"/>
  
  <!-- Water storage tank -->
  <rect x="120" y="100" width="40" height="40" fill="#4682B4" rx="5"/>
  <rect x="120" y="100" width="40" height="5" fill="#2F4F4F"/>
  <circle cx="135" cy="120" r="3" fill="#000080"/>
  <rect x="125" y="105" width="30" height="2" fill="#E0E0E0"/> <!-- Water level -->
  
  <!-- Solar panel for pump -->
  <rect x="40" y="110" width="25" height="15" fill="#191970" rx="2"/>
  <line x1="45" y1="110" x2="45" y2="125" stroke="#000" stroke-width="0.5"/>
  <line x1="50" y1="110" x2="50" y2="125" stroke="#000" stroke-width="0.5"/>
  <line x1="55" y1="110" x2="55" y2="125" stroke="#000" stroke-width="0.5"/>
  <line x1="60" y1="110" x2="60" y2="125" stroke="#000" stroke-width="0.5"/>
  
  <!-- Panel support -->
  <line x1="52" y1="125" x2="52" y2="140" stroke="#708090" stroke-width="3"/>
  
  <!-- Pipes connecting systems -->
  <rect x="95" y="138" width="25" height="3" fill="#708090"/>
  <rect x="160" y="118" width="40" height="3" fill="#708090"/>
  
  <!-- Pressure tank -->
  <ellipse cx="180" cy="130" rx="12" ry="20" fill="#2F4F4F"/>
  <rect x="175" y="115" width="10" height="3" fill="#FFD700"/>
  
  <!-- Windmill -->
  <rect x="270" y="90" width="4" height="50" fill="#8B4513"/>
  <circle cx="272" cy="88" r="3" fill="#C0C0C0"/>
  
  <!-- Windmill blades -->
  <line x1="272" y1="88" x2="285" y2="75" stroke="#E0E0E0" stroke-width="2"/>
  <line x1="272" y1="88" x2="259" y2="75" stroke="#E0E0E0" stroke-width="2"/>
  <line x1="272" y1="88" x2="285" y2="101" stroke="#E0E0E0" stroke-width="2"/>
  <line x1="272" y1="88" x2="259" y2="101" stroke="#E0E0E0" stroke-width="2"/>
  
  <!-- Wind direction indicator -->
  <polygon points="280,85 285,88 280,91" fill="#000"/>
  
  <!-- Underground cistern -->
  <ellipse cx="40" cy="160" rx="20" ry="10" fill="#4682B4" opacity="0.7"/>
  <rect x="35" y="150" width="10" height="3" fill="#708090"/>
  
  <!-- Filtration system -->
  <rect x="240" y="130" width="20" height="25" fill="#E6E6FA" rx="3"/>
  <rect x="242" y="135" width="16" height="3" fill="#000"/>
  <rect x="242" y="142" width="16" height="3" fill="#4682B4"/>
  <rect x="242" y="149" width="16" height="3" fill="#32CD32"/>
  
  <!-- Gravity feed lines -->
  <line x1="140" y1="100" x2="200" y2="90" stroke="#708090" stroke-width="2"/>
  
  <!-- Check valve -->
  <polygon points="170,119 175,116 175,122" fill="#FFD700"/>
  
  <!-- Overflow pipe -->
  <rect x="155" y="105" width="3" height="15" fill="#708090"/>
  
  <!-- Water level gauge -->
  <rect x="163" y="105" width="2" height="30" fill="#000"/>
  <rect x="161" y="110" width="6" height="2" fill="#32CD32"/>
  <rect x="161" y="120" width="6" height="2" fill="#FFD700"/>
  <rect x="161" y="130" width="6" height="2" fill="#DC143C"/>
  
  <!-- Rainwater collection -->
  <rect x="195" y="78" width="70" height="4" fill="#708090"/>
  <rect x="258" y="80" width="4" height="25" fill="#708090"/>
  <rect x="260" y="102" width="10" height="3" fill="#708090"/>
  
  <!-- Collection barrel -->
  <rect x="275" y="105" width="15" height="20" fill="#4682B4" rx="2"/>
  <rect x="275" y="105" width="15" height="3" fill="#2F4F4F"/>
  
  <!-- Distribution manifold -->
  <rect x="190" y="140" width="20" height="5" fill="#708090"/>
  <line x1="195" y1="145" x2="195" y2="155" stroke="#708090" stroke-width="2"/>
  <line x1="205" y1="145" x2="205" y2="155" stroke="#708090" stroke-width="2"/>
  
  <!-- Flow meter -->
  <circle cx="225" cy="118" r="3" fill="#000"/>
  <rect x="222" y="115" width="6" height="6" fill="#E0E0E0"/>
  
  <!-- Shut-off valves -->
  <circle cx="145" cy="119" r="2" fill="#DC143C"/>
  <circle cx="185" cy="119" r="2" fill="#32CD32"/>
  
  <!-- Sun -->
  <circle cx="40" cy="30" r="20" fill="#FFD700"/>
  
  <!-- Cacti -->
  <rect x="15" y="150" width="4" height="20" fill="#228B22"/>
  <rect x="12" y="158" width="10" height="3" fill="#228B22"/>
  <circle cx="17" cy="152" r="1" fill="#FF69B4"/>
  
  <rect x="300" y="145" width="6" height="25" fill="#228B22"/>
  <rect x="297" y="155" width="12" height="4" fill="#228B22"/>
  <circle cx="303" cy="147" r="1" fill="#FFD700"/>
</svg>