<svg viewBox="0 0 320 180" xmlns="http://www.w3.org/2000/svg">
  <defs>
    <linearGradient id="skyGradient" x1="0%" y1="0%" x2="0%" y2="100%">
      <stop offset="0%" style="stop-color:#87CEEB;stop-opacity:1" />
      <stop offset="100%" style="stop-color:#98D8E8;stop-opacity:1" />
    </linearGradient>
  </defs>
  
  <!-- Sky background -->
  <rect width="320" height="120" fill="url(#skyGradient)"/>
  
  <!-- Ground layers -->
  <rect x="0" y="120" width="320" height="60" fill="#90EE90"/>
  
  <!-- Central pond/water feature -->
  <ellipse cx="160" cy="140" rx="40" ry="20" fill="#4169E1"/>
  
  <!-- Zone 1 - House/center -->
  <rect x="140" y="80" width="40" height="30" fill="#8B4513"/>
  <polygon points="140,80 160,60 180,80" fill="#DC143C"/>
  
  <!-- Zone 2 - Kitchen garden (spiral) -->
  <path d="M120,130 Q110,120 115,110 Q125,105 135,115 Q140,125 130,135 Q115,140 120,130" 
        fill="none" stroke="#228B22" stroke-width="3"/>
  
  <!-- Zone 3 - Orchard trees -->
  <circle cx="60" cy="120" r="12" fill="#32CD32"/>
  <rect x="58" y="130" width="4" height="15" fill="#8B4513"/>
  
  <circle cx="90" cy="110" r="12" fill="#32CD32"/>
  <rect x="88" y="120" width="4" height="15" fill="#8B4513"/>
  
  <circle cx="230" cy="115" r="12" fill="#32CD32"/>
  <rect x="228" y="125" width="4" height="15" fill="#8B4513"/>
  
  <circle cx="260" cy="125" r="12" fill="#32CD32"/>
  <rect x="258" y="135" width="4" height="15" fill="#8B4513"/>
  
  <!-- Zone 4 - Pasture/fields -->
  <rect x="20" y="140" width="50" height="30" fill="#9ACD32" opacity="0.7"/>
  <rect x="250" y="140" width="50" height="30" fill="#9ACD32" opacity="0.7"/>
  
  <!-- Swales and berms -->
  <path d="M40,155 Q80,150 120,155" fill="none" stroke="#654321" stroke-width="4"/>
  <path d="M200,155 Q240,150 280,155" fill="none" stroke="#654321" stroke-width="4"/>
  
  <!-- Compost area -->
  <rect x="190" y="135" width="15" height="10" fill="#8B4513"/>
  <polygon points="197,135 202,130 207,135" fill="#654321"/>
  
  <!-- Rain catchment -->
  <rect x="200" y="120" width="12" height="8" fill="#4682B4"/>
  
  <!-- Pathways -->
  <path d="M160,110 Q140,130 120,140" fill="none" stroke="#D2B48C" stroke-width="4"/>
  <path d="M160,110 Q180,130 200,140" fill="none" stroke="#D2B48C" stroke-width="4"/>
  
  <!-- Wild area markers -->
  <circle cx="25" cy="170" r="3" fill="#228B22"/>
  <circle cx="30" cy="165" r="3" fill="#228B22"/>
  <circle cx="295" cy="170" r="3" fill="#228B22"/>
  <circle cx="290" cy="165" r="3" fill="#228B22"/>
  
  <!-- Design sectors arrows -->
  <polygon points="80,40 85,35 90,40 85,50" fill="#FFD700"/>
  <polygon points="240,40 245,35 250,40 245,50" fill="#FFD700"/>
  
  <!-- Wind direction -->
  <path d="M40,20 L50,20 M45,15 L50,20 L45,25" stroke="#696969" stroke-width="2"/>
  
  <!-- Sun path -->
  <circle cx="280" cy="30" r="15" fill="#FFD700"/>
  <path d="M250,30 Q265,15 280,30" fill="none" stroke="#FFD700" stroke-width="2"/>
</svg>