<svg viewBox="0 0 320 180" xmlns="http://www.w3.org/2000/svg">
  <defs>
    <linearGradient id="skyGradient" x1="0%" y1="0%" x2="0%" y2="100%">
      <stop offset="0%" style="stop-color:#87CEEB;stop-opacity:1" />
      <stop offset="100%" style="stop-color:#98D8E8;stop-opacity:1" />
    </linearGradient>
  </defs>
  
  <!-- Sky background -->
  <rect width="320" height="120" fill="url(#skyGradient)"/>
  
  <!-- Ground -->
  <rect x="0" y="120" width="320" height="60" fill="#90EE90"/>
  
  <!-- Coop -->
  <rect x="200" y="80" width="80" height="60" fill="#8B4513"/>
  <polygon points="200,80 240,50 280,80" fill="#DC143C"/>
  <rect x="210" y="100" width="15" height="20" fill="#654321"/>
  <circle cx="220" cy="110" r="2" fill="#FFD700"/>
  
  <!-- Fence -->
  <rect x="50" y="100" width="3" height="40" fill="#8B4513"/>
  <rect x="70" y="100" width="3" height="40" fill="#8B4513"/>
  <rect x="90" y="100" width="3" height="40" fill="#8B4513"/>
  <rect x="110" y="100" width="3" height="40" fill="#8B4513"/>
  <rect x="130" y="100" width="3" height="40" fill="#8B4513"/>
  <rect x="150" y="100" width="3" height="40" fill="#8B4513"/>
  <rect x="170" y="100" width="3" height="40" fill="#8B4513"/>
  
  <!-- Fence horizontal -->
  <rect x="50" y="110" width="123" height="2" fill="#8B4513"/>
  <rect x="50" y="125" width="123" height="2" fill="#8B4513"/>
  
  <!-- Chicken 1 -->
  <ellipse cx="80" cy="130" rx="12" ry="8" fill="#FFFFFF"/>
  <circle cx="75" cy="125" r="6" fill="#FFFFFF"/>
  <polygon points="70,125 65,122 70,119" fill="#FFA500"/>
  <circle cx="72" cy="123" r="1" fill="#000"/>
  <polygon points="78,128 82,132 78,135" fill="#FFD700"/>
  <polygon points="85,132 89,135 85,138" fill="#FFD700"/>
  
  <!-- Chicken 2 -->
  <ellipse cx="120" cy="135" rx="10" ry="7" fill="#CD853F"/>
  <circle cx="116" cy="130" r="5" fill="#CD853F"/>
  <polygon points="112,130 108,127 112,124" fill="#FFA500"/>
  <circle cx="114" cy="128" r="1" fill="#000"/>
  <polygon points="118,133 122,136 118,139" fill="#FFD700"/>
  <polygon points="125,136 129,139 125,142" fill="#FFD700"/>
  
  <!-- Chicken 3 -->
  <ellipse cx="160" cy="132" rx="11" ry="7" fill="#8B4513"/>
  <circle cx="155" cy="127" r="5" fill="#8B4513"/>
  <polygon points="151,127 147,124 151,121" fill="#FFA500"/>
  <circle cx="153" cy="125" r="1" fill="#000"/>
  <polygon points="157,130 161,133 157,136" fill="#FFD700"/>
  <polygon points="164,133 168,136 164,139" fill="#FFD700"/>
  
  <!-- Feed scattered on ground -->
  <circle cx="100" cy="145" r="1" fill="#F4A460"/>
  <circle cx="105" cy="148" r="1" fill="#F4A460"/>
  <circle cx="95" cy="150" r="1" fill="#F4A460"/>
  <circle cx="110" cy="152" r="1" fill="#F4A460"/>
  <circle cx="140" cy="147" r="1" fill="#F4A460"/>
  <circle cx="145" cy="151" r="1" fill="#F4A460"/>
  
  <!-- Sun -->
  <circle cx="40" cy="30" r="20" fill="#FFD700"/>
</svg>