<svg viewBox="0 0 320 180" xmlns="http://www.w3.org/2000/svg">
  <defs>
    <linearGradient id="soilGradient" x1="0%" y1="0%" x2="0%" y2="100%">
      <stop offset="0%" style="stop-color:#CD853F;stop-opacity:1" />
      <stop offset="100%" style="stop-color:#8B4513;stop-opacity:1" />
    </linearGradient>
  </defs>
  
  <!-- Sky background -->
  <rect width="320" height="100" fill="#87CEEB"/>
  
  <!-- Desert soil layers -->
  <rect x="0" y="100" width="320" height="20" fill="#D2B48C"/> <!-- Top layer -->
  <rect x="0" y="120" width="320" height="30" fill="url(#soilGradient)"/> <!-- Improved soil -->
  <rect x="0" y="150" width="320" height="30" fill="#A0522D"/> <!-- Subsoil -->
  
  <!-- Mulch areas -->
  <ellipse cx="80" cy="110" rx="25" ry="8" fill="#654321"/>
  <ellipse cx="180" cy="115" rx="30" ry="10" fill="#654321"/>
  <ellipse cx="280" cy="112" rx="20" ry="6" fill="#654321"/>
  
  <!-- Compost pile -->
  <ellipse cx="50" cy="105" rx="20" ry="12" fill="#8B4513"/>
  <circle cx="45" cy="100" r="3" fill="#228B22"/> <!-- Organic matter -->
  <circle cx="55" cy="98" r="3" fill="#8B4513"/> <!-- Decomposed -->
  <circle cx="50" cy="102" r="2" fill="#32CD32"/> <!-- Fresh greens -->
  
  <!-- Organic amendments -->
  <rect x="120" y="95" width="15" height="10" fill="#DAA520"/> <!-- Straw bale -->
  <rect x="125" y="90" width="5" height="5" fill="#F4A460"/> <!-- Loose straw -->
  
  <!-- Water catchment basin -->
  <path d="M200,110 Q220,120 240,110 Q220,125 200,110" fill="#4169E1" opacity="0.7"/>
  
  <!-- Desert plants adapted to improved soil -->
  <!-- Prickly pear -->
  <ellipse cx="90" cy="95" rx="8" ry="12" fill="#228B22"/>
  <ellipse cx="85" cy="90" rx="6" ry="8" fill="#228B22"/>
  <circle cx="88" cy="85" r="2" fill="#FFD700"/> <!-- Flower -->
  
  <!-- Agave -->
  <polygon points="160,105 165,85 170,105" fill="#9ACD32"/>
  <polygon points="155,100 165,85 175,100" fill="#9ACD32"/>
  <polygon points="150,105 165,85 180,105" fill="#9ACD32"/>
  
  <!-- Native grasses -->
  <rect x="250" y="95" width="2" height="15" fill="#228B22"/>
  <rect x="255" y="98" width="2" height="12" fill="#228B22"/>
  <rect x="260" y="100" width="2" height="10" fill="#228B22"/>
  
  <!-- Mycorrhizal networks (underground) -->
  <path d="M70,130 Q90,135 110,130 Q130,125 150,130" fill="none" stroke="#FFFFFF" stroke-width="1" opacity="0.7"/>
  <path d="M170,135 Q190,140 210,135 Q230,130 250,135" fill="none" stroke="#FFFFFF" stroke-width="1" opacity="0.7"/>
  
  <!-- Root systems -->
  <path d="M165,105 Q160,120 155,135" fill="none" stroke="#8B4513" stroke-width="2"/>
  <path d="M165,105 Q170,120 175,135" fill="none" stroke="#8B4513" stroke-width="2"/>
  <path d="M88,105 Q85,120 82,135" fill="none" stroke="#228B22" stroke-width="1"/>
  <path d="M92,105 Q95,120 98,135" fill="none" stroke="#228B22" stroke-width="1"/>
  
  <!-- Soil amendments -->
  <!-- Biochar -->
  <circle cx="140" cy="125" r="2" fill="#000"/>
  <circle cx="200" cy="130" r="2" fill="#000"/>
  <circle cx="280" cy="128" r="2" fill="#000"/>
  
  <!-- Rock mulch -->
  <circle cx="120" cy="118" r="3" fill="#A9A9A9"/>
  <circle cx="190" cy="122" r="3" fill="#A9A9A9"/>
  <circle cx="270" cy="120" r="3" fill="#A9A9A9"/>
  
  <!-- Worms improving soil -->
  <path d="M160,140 Q165,138 170,140 Q175,142 180,140" fill="none" stroke="#8B4513" stroke-width="2"/>
  <path d="M100,145 Q105,143 110,145 Q115,147 120,145" fill="none" stroke="#8B4513" stroke-width="2"/>
  
  <!-- Soil testing equipment -->
  <rect x="20" y="120" width="3" height="15" fill="#C0C0C0"/>
  <circle cx="21.5" cy="117" r="2" fill="#000"/>
  
  <!-- pH indicator -->
  <rect x="300" y="125" width="8" height="3" fill="#32CD32"/>
  <rect x="310" y="125" width="5" height="3" fill="#FFD700"/>
  
  <!-- Drip irrigation -->
  <line x1="10" y1="95" x2="310" y2="95" stroke="#000" stroke-width="1"/>
  <circle cx="80" cy="95" r="1" fill="#4169E1"/>
  <circle cx="160" cy="95" r="1" fill="#4169E1"/>
  <circle cx="240" cy="95" r="1" fill="#4169E1"/>
  
  <!-- Water droplets -->
  <circle cx="80" cy="100" r="1" fill="#4169E1" opacity="0.7"/>
  <circle cx="160" cy="102" r="1" fill="#4169E1" opacity="0.7"/>
  <circle cx="240" cy="101" r="1" fill="#4169E1" opacity="0.7"/>
  
  <!-- Sun -->
  <circle cx="40" cy="30" r="20" fill="#FFD700"/>
  <path d="M40,5 L40,20 M55,15 L65,5 M65,30 L80,30 M65,45 L55,55 M40,55 L40,70 M25,55 L15,45 M15,30 L0,30 M15,15 L25,5" stroke="#FFD700" stroke-width="3"/>
  
  <!-- Desert mountains -->
  <polygon points="250,100 280,60 310,100" fill="#CD853F"/>
  <polygon points="270,100 295,70 320,100" fill="#D2B48C"/>
</svg>