<svg viewBox="0 0 320 180" xmlns="http://www.w3.org/2000/svg">
  <defs>
    <linearGradient id="skyGradient" x1="0%" y1="0%" x2="0%" y2="100%">
      <stop offset="0%" style="stop-color:#87CEEB;stop-opacity:1" />
      <stop offset="100%" style="stop-color:#98D8E8;stop-opacity:1" />
    </linearGradient>
    <linearGradient id="panelGradient" x1="0%" y1="0%" x2="100%" y2="100%">
      <stop offset="0%" style="stop-color:#191970;stop-opacity:1" />
      <stop offset="100%" style="stop-color:#000080;stop-opacity:1" />
    </linearGradient>
  </defs>
  
  <!-- Sky background -->
  <rect width="320" height="120" fill="url(#skyGradient)"/>
  
  <!-- Ground -->
  <rect x="0" y="120" width="320" height="60" fill="#D2B48C"/>
  
  <!-- House -->
  <rect x="180" y="70" width="70" height="50" fill="#8B4513"/>
  <polygon points="180,70 215,45 250,70" fill="#DC143C"/>
  
  <!-- Solar panels on roof -->
  <rect x="185" y="55" width="25" height="15" fill="url(#panelGradient)" rx="2"/>
  <rect x="215" y="55" width="25" height="15" fill="url(#panelGradient)" rx="2"/>
  
  <!-- Panel grid lines -->
  <line x1="190" y1="55" x2="190" y2="70" stroke="#000" stroke-width="0.5"/>
  <line x1="195" y1="55" x2="195" y2="70" stroke="#000" stroke-width="0.5"/>
  <line x1="200" y1="55" x2="200" y2="70" stroke="#000" stroke-width="0.5"/>
  <line x1="205" y1="55" x2="205" y2="70" stroke="#000" stroke-width="0.5"/>
  <line x1="220" y1="55" x2="220" y2="70" stroke="#000" stroke-width="0.5"/>
  <line x1="225" y1="55" x2="225" y2="70" stroke="#000" stroke-width="0.5"/>
  <line x1="230" y1="55" x2="230" y2="70" stroke="#000" stroke-width="0.5"/>
  <line x1="235" y1="55" x2="235" y2="70" stroke="#000" stroke-width="0.5"/>
  
  <!-- Ground solar array -->
  <rect x="50" y="100" width="40" height="20" fill="url(#panelGradient)" rx="2"/>
  <rect x="100" y="95" width="40" height="20" fill="url(#panelGradient)" rx="2"/>
  
  <!-- Panel supports -->
  <line x1="60" y1="120" x2="80" y2="100" stroke="#708090" stroke-width="3"/>
  <line x1="110" y1="115" x2="130" y2="95" stroke="#708090" stroke-width="3"/>
  
  <!-- Battery bank -->
  <rect x="260" y="130" width="35" height="25" fill="#2F4F4F" rx="3"/>
  <rect x="265" y="135" width="6" height="15" fill="#000"/>
  <rect x="275" y="135" width="6" height="15" fill="#000"/>
  <rect x="285" y="135" width="6" height="15" fill="#000"/>
  
  <!-- Power lines -->
  <line x1="90" y1="110" x2="260" y2="140" stroke="#000" stroke-width="2"/>
  <line x1="240" y1="80" x2="260" y2="135" stroke="#000" stroke-width="2"/>
  
  <!-- Sun with intense rays -->
  <circle cx="40" cy="40" r="25" fill="#FFD700"/>
  <path d="M40,10 L40,25 M60,20 L70,10 M70,40 L85,40 M70,60 L60,70 M40,70 L40,85 M20,70 L10,60 M10,40 L-5,40 M10,20 L20,10" stroke="#FFD700" stroke-width="4"/>
  
  <!-- Energy flow indicators -->
  <polygon points="150,125 155,130 150,135" fill="#32CD32"/>
  <polygon points="200,115 205,120 200,125" fill="#32CD32"/>
  
  <!-- Cacti -->
  <rect x="15" y="140" width="4" height="20" fill="#228B22"/>
  <rect x="12" y="148" width="10" height="3" fill="#228B22"/>
  <circle cx="17" cy="142" r="1" fill="#FF69B4"/>
</svg>