<svg viewBox="0 0 320 180" xmlns="http://www.w3.org/2000/svg">
  <defs>
    <linearGradient id="skyGradient" x1="0%" y1="0%" x2="0%" y2="100%">
      <stop offset="0%" style="stop-color:#87CEEB;stop-opacity:1" />
      <stop offset="100%" style="stop-color:#98D8E8;stop-opacity:1" />
    </linearGradient>
  </defs>
  
  <!-- Sky background -->
  <rect width="320" height="120" fill="url(#skyGradient)"/>
  
  <!-- Ground -->
  <rect x="0" y="120" width="320" height="60" fill="#D2B48C"/>
  
  <!-- House -->
  <rect x="50" y="60" width="80" height="60" fill="#8B4513"/>
  <polygon points="50,60 90,30 130,60" fill="#DC143C"/>
  
  <!-- Rain barrel -->
  <rect x="140" y="90" width="25" height="50" fill="#4682B4" rx="5"/>
  <rect x="140" y="90" width="25" height="5" fill="#2F4F4F"/>
  <circle cx="148" cy="110" r="2" fill="#000080"/>
  
  <!-- Gutter -->
  <rect x="45" y="58" width="90" height="4" fill="#708090"/>
  
  <!-- Downspout -->
  <rect x="128" y="60" width="4" height="35" fill="#708090"/>
  <rect x="132" y="92" width="10" height="3" fill="#708090"/>
  
  <!-- Rain clouds -->
  <circle cx="200" cy="25" r="15" fill="#696969"/>
  <circle cx="215" cy="20" r="12" fill="#696969"/>
  <circle cx="230" cy="25" r="18" fill="#696969"/>
  <circle cx="245" cy="30" r="14" fill="#696969"/>
  
  <!-- Rain drops -->
  <line x1="190" y1="45" x2="188" y2="55" stroke="#4169E1" stroke-width="2"/>
  <line x1="205" y1="40" x2="203" y2="50" stroke="#4169E1" stroke-width="2"/>
  <line x1="220" y1="45" x2="218" y2="55" stroke="#4169E1" stroke-width="2"/>
  <line x1="235" y1="50" x2="233" y2="60" stroke="#4169E1" stroke-width="2"/>
  <line x1="250" y1="45" x2="248" y2="55" stroke="#4169E1" stroke-width="2"/>
  <line x1="265" y1="50" x2="263" y2="60" stroke="#4169E1" stroke-width="2"/>
  
  <!-- Water collection tank -->
  <rect x="220" y="100" width="60" height="40" fill="#4682B4" rx="5"/>
  <rect x="220" y="100" width="60" height="5" fill="#2F4F4F"/>
  <circle cx="245" cy="120" r="3" fill="#000080"/>
  
  <!-- Pipe from barrel to tank -->
  <rect x="165" y="118" width="55" height="3" fill="#708090"/>
  
  <!-- Cacti (Arizona desert) -->
  <rect x="20" y="130" width="6" height="25" fill="#228B22"/>
  <rect x="15" y="140" width="16" height="4" fill="#228B22"/>
  <rect x="280" y="125" width="8" height="30" fill="#228B22"/>
  <rect x="275" y="135" width="18" height="5" fill="#228B22"/>
  
  <!-- Small flowers on cacti -->
  <circle cx="23" cy="132" r="2" fill="#FF69B4"/>
  <circle cx="284" cy="127" r="2" fill="#FFD700"/>
</svg>